<mxfile host="65bd71144e">
    <diagram id="mNFGkS7w7EyEu26hPMA5" name="Page-1">
        <mxGraphModel dx="1700" dy="620" grid="1" gridSize="10" guides="1" tooltips="1" connect="1" arrows="1" fold="1" page="1" pageScale="1" pageWidth="850" pageHeight="1100" math="0" shadow="0">
            <root>
                <mxCell id="0"/>
                <mxCell id="1" parent="0"/>
                <mxCell id="38" value="" style="whiteSpace=wrap;html=1;rounded=1;fillColor=#b1ddf0;strokeColor=#10739e;" vertex="1" parent="1">
                    <mxGeometry x="50" y="240" width="750" height="430" as="geometry"/>
                </mxCell>
                <mxCell id="39" value="" style="dashed=0;outlineConnect=0;html=1;align=center;labelPosition=center;verticalLabelPosition=bottom;verticalAlign=top;shape=mxgraph.weblogos.aws_s3;rounded=1;shadow=0;" vertex="1" parent="1">
                    <mxGeometry x="85" y="260" width="225" height="150" as="geometry"/>
                </mxCell>
                <mxCell id="42" value="" style="shape=singleArrow;direction=north;whiteSpace=wrap;html=1;fontSize=41;fillColor=#1ba1e2;rotation=90;strokeColor=#006EAF;arrowWidth=0.3223895670572915;arrowSize=0.20571489560287637;fontColor=#ffffff;shadow=1;sketch=1;curveFitting=1;jiggle=2;" vertex="1" parent="1">
                    <mxGeometry x="360" y="449" width="79.25" height="120.3" as="geometry"/>
                </mxCell>
                <mxCell id="43" value="&lt;span style=&quot;font-size: 32px;&quot;&gt;&lt;b&gt;Backup Website &lt;br&gt;&lt;br&gt;Shell Script&lt;/b&gt;&lt;/span&gt;" style="text;strokeColor=none;align=center;fillColor=none;html=1;verticalAlign=middle;whiteSpace=wrap;rounded=0;shadow=1;sketch=1;strokeWidth=4;" vertex="1" parent="1">
                    <mxGeometry x="460" y="270" width="310" height="90" as="geometry"/>
                </mxCell>
                <mxCell id="44" value="&lt;font color=&quot;#ff0808&quot; style=&quot;font-size: 32px;&quot;&gt;&lt;b&gt;S3 BUCKET&lt;/b&gt;&lt;/font&gt;" style="text;strokeColor=none;align=center;fillColor=none;html=1;verticalAlign=middle;whiteSpace=wrap;rounded=0;shadow=1;sketch=1;strokeWidth=4;" vertex="1" parent="1">
                    <mxGeometry x="460" y="300" width="300" height="30" as="geometry"/>
                </mxCell>
                <mxCell id="45" value="" style="outlineConnect=0;dashed=0;verticalLabelPosition=bottom;verticalAlign=top;align=center;html=1;shape=mxgraph.aws3.s3;fillColor=#E05243;gradientColor=none;rounded=1;shadow=0;sketch=0;strokeWidth=4;fontSize=32;fontColor=#FF0808;" vertex="1" parent="1">
                    <mxGeometry x="520" y="421.15" width="190" height="176" as="geometry"/>
                </mxCell>
                <mxCell id="51" value="" style="editableCssRules=.*;shape=image;verticalLabelPosition=bottom;labelBackgroundColor=#ffffff;verticalAlign=top;aspect=fixed;imageAspect=0;image=data:image/svg+xml,PHN2ZyB4bWxucz0iaHR0cDovL3d3dy53My5vcmcvMjAwMC9zdmciIHhtbG5zOnY9Imh0dHBzOi8vdmVjdGEuaW8vbmFubyIgd2lkdGg9IjM3NS44NTAyODQ2NDQwODg3MyIgaGVpZ2h0PSIzNTMuODA1Nzc3NDY3NzY5NyIgdmlld0JveD0iMC4yNTU5OTk1NjUxMjQ1MTE3IDAuNDI2MDAwMDI4ODQ4NjQ4MDcgOTkuNDQzNjU2OTIxMzg2NzIgOTMuNjExMDAwMDYxMDM1MTYiPiYjeGE7PHN0eWxlIHR5cGU9InRleHQvY3NzIj4mI3hhOwkuc3Qwe2ZpbGw6I2FlY2JmYTt9JiN4YTsJLnN0MXtmaWxsOiNmZmY7fSYjeGE7CS5zdDJ7ZmlsbDojNDI4NWY0O30mI3hhOwkuc3Qze2ZpbGw6IzY2OWRmNjt9JiN4YTs8L3N0eWxlPiYjeGE7CTxwYXRoIGNsYXNzPSJzdDAiIGQ9Ik04LjU0NCA3MS45MjhjLTQuODE1IDAtOC4yODgtMy44ODktOC4yODgtOC4zMjdWNy45ODNDLjI1NyA0LjY1IDQuMDcyLjQyNiA3LjQ5NS40MjZoODMuOTUyYzQuNzA1IDAgOC4yNTIgMy4zNzkgOC4yNTIgOC4xNzR2NTEuNDk1Yy4wNDcgNy41OTUtMi40NyAxMS44MzQtOS4wMTIgMTEuODM0eiIvPiYjeGE7CTxwYXRoIGNsYXNzPSJzdDEiIGQ9Ik0yOC4wNDYgNTcuMTV2LTkuOTIybDMxLjg4Mi0xMy44OTEtMzEuODgyLTEzLjY5MlY5LjI2MWw0NS44MDYgMTguOTg0djkuNzl6bTI1LjIzNSAzLjY3MXYtMTAuNTVoMjAuMDc1djEwLjU1eiIvPiYjeGE7CTxwYXRoIGNsYXNzPSJzdDIiIGQ9Ik00MC4wMyA4My41MjRWNzEuOTI4aDIwLjI5NXYxMS41OTZ6Ii8+JiN4YTsJPHBhdGggY2xhc3M9InN0MyIgZD0iTTY5Ljg3MyA4My41MjR2MTAuNTEzSDMwLjFWODMuNTI0eiIvPiYjeGE7PC9zdmc+;" vertex="1" parent="1">
                    <mxGeometry x="110" y="449" width="181.27" height="172.21" as="geometry"/>
                </mxCell>
            </root>
        </mxGraphModel>
    </diagram>
</mxfile>